Coordinates
version=1
nRows=9
nColumns=24
inDegrees=yes

Units are S.I. units (second, meters, Newtons, ...)
If the header above contains a line with 'inDegrees', this indicates whether rotational values are in degrees (yes) or radians (no).

endheader
time	pelvis_tilt	pelvis_list	pelvis_rotation	pelvis_tx	pelvis_ty	pelvis_tz	hip_flexion_r	hip_adduction_r	hip_rotation_r	knee_angle_r	ankle_angle_r	subtalar_angle_r	mtp_angle_r	hip_flexion_l	hip_adduction_l	hip_rotation_l	knee_angle_l	ankle_angle_l	subtalar_angle_l	mtp_angle_l	lumbar_extension	lumbar_bending	lumbar_rotation
      1.60000000	      3.03046097	     -8.02968652	     88.75942906	      0.24470594	      1.00476578	      0.25934541	     11.40350894	      5.97499787	     -1.95079944	    -19.20904852	     10.99249304	      0.00000000	      0.00000000	     33.94272771	     -4.60353267	     -5.26973971	    -33.88667952	      6.08650308	      0.00000000	      0.00000000	     -5.97253633	      4.10193981	     -0.38484847
      1.61000000	      3.04165680	     -8.05653688	     88.14637499	      0.24507850	      1.00406666	      0.24612670	     10.46607105	      6.01356270	     -1.56752826	    -18.95782143	     11.17305156	      0.00000000	      0.00000000	     33.54060360	     -4.79193843	     -5.90456325	    -29.45901924	      5.64258650	      0.00000000	      0.00000000	     -5.98269040	      4.02702608	     -0.24598548
      1.62000000	      3.06081923	     -8.08972792	     87.52255480	      0.24543385	      1.00317136	      0.23281565	      9.49613062	      6.05719205	     -1.01841984	    -18.64349025	     11.66812821	      0.00000000	      0.00000000	     33.05498504	     -4.95752632	     -6.42404429	    -24.95852115	      3.48136013	      0.00000000	      0.00000000	     -6.26271208	      3.63854315	      1.67291277
      1.63000000	      3.13836832	     -8.05917225	     86.91629895	      0.24574254	      1.00209861	      0.21933177	      8.48826686	      6.10897761	     -0.69554249	    -18.42397510	     11.75307086	      0.00000000	      0.00000000	     32.44126461	     -5.12196172	     -6.72490878	    -20.51204333	      3.07491084	      0.00000000	      0.00000000	     -6.19924252	      3.71700888	      1.88034844
      1.64000000	      3.21615366	     -8.06051515	     86.31705620	      0.24602968	      1.00080188	      0.20576824	      7.52410077	      6.14202613	     -0.34747009	    -18.23256418	     11.95486853	      0.00000000	      0.00000000	     31.82634987	     -5.25976383	     -6.81740371	    -16.19297543	      1.65064034	      0.00000000	      0.00000000	     -6.22657962	      3.78465586	      2.42583067
      1.65000000	      3.29753551	     -8.05387733	     85.72677599	      0.24628209	      0.99930146	      0.19208586	      6.59601175	      6.13457552	     -0.15881252	    -18.14714685	     12.04790400	      0.00000000	      0.00000000	     31.25055503	     -5.41523262	     -6.93227910	    -12.25673624	      1.22277851	      0.00000000	      0.00000000	     -6.18568273	      3.84298103	      2.60069042
      1.66000000	      3.42674403	     -8.07202185	     85.18713186	      0.24649619	      0.99765266	      0.17831290	      5.64565432	      6.18476983	      0.20830214	    -17.98953395	     12.26706892	      0.00000000	      0.00000000	     30.66336956	     -5.56322161	     -6.25719999	     -8.58687357	     -0.16727863	      0.00000000	      0.00000000	     -6.22182006	      3.90467043	      3.11158349
      1.67000000	      3.52329668	     -8.08422599	     84.67123611	      0.24665477	      0.99588498	      0.16442020	      4.72355858	      6.16635239	      0.48432827	    -17.90174998	     12.42851922	      0.00000000	      0.00000000	     30.19292536	     -5.73037807	     -5.79640866	     -5.54812092	     -0.94282584	      0.00000000	      0.00000000	     -6.21046495	      3.94944105	      3.59128465
      1.68000000	      3.60251817	     -8.11278912	     84.19788627	      0.24675288	      0.99402713	      0.15044707	      3.83662485	      6.11765818	      0.78957148	    -17.85138952	     12.57587409	      0.00000000	      0.00000000	     29.84240383	     -5.89786883	     -5.32508712	     -3.11519368	     -1.49420553	      0.00000000	      0.00000000	     -6.17050231	      3.96297237	      3.99787888
